<svg xmlns="http://www.w3.org/2000/svg" xmlns:xlink="http://www.w3.org/1999/xlink" version="1.1" id="Layer_1" x="0px" y="0px" viewBox="0 0 512 512" style="enable-background:new 0 0 512 512;" xml:space="preserve"><g><path d="M20.7,49.1C9.3,49.1,0,58.4,0,69.8s9.3,20.7,20.7,20.7h45.9l54.3,217.2c4.6,18.4,21.1,31,40.1,31h257.9   c18.7,0,34.5-12.4,39.4-30.4L512,111.2h-43.3l-49.8,186.2H161L106.7,80.2c-4.6-18.4-21.1-31-40.1-31L20.7,49.1L20.7,49.1z    M393.1,338.7c-34,0-62.1,28-62.1,62.1s28,62.1,62.1,62.1s62.1-28,62.1-62.1S427.1,338.7,393.1,338.7z M206.9,338.7   c-34,0-62.1,28-62.1,62.1s28,62.1,62.1,62.1s62.1-28,62.1-62.1S240.9,338.7,206.9,338.7z M268.9,49.1v62.1h-62.1v41.4h62.1v62.1   h41.4v-62.1h62.1v-41.4h-62.1V49.1H268.9z M206.9,380.1c11.6,0,20.7,9.1,20.7,20.7s-9.1,20.7-20.7,20.7c-11.6,0-20.7-9.1-20.7-20.7   S195.2,380.1,206.9,380.1z M393.1,380.1c11.6,0,20.7,9.1,20.7,20.7s-9.1,20.7-20.7,20.7s-20.7-9.1-20.7-20.7   S381.4,380.1,393.1,380.1z"/></g></svg>