<?xml version="1.0" encoding="utf-8"?>
<!-- Generator: Adobe Illustrator 19.0.0, SVG Export Plug-In . SVG Version: 6.00 Build 0)  -->
<svg version="1.1" id="Layer_1" xmlns="http://www.w3.org/2000/svg" xmlns:xlink="http://www.w3.org/1999/xlink" x="0px" y="0px"
	 viewBox="0 0 512 512" style="enable-background:new 0 0 512 512;" xml:space="preserve">
<g id="XMLID_1_">
	<path id="XMLID_3_" d="M185.1,92.4c9.5,8.7,9.5,23.6,0,33.1L78,233.4h411.2c12.6,0,22.8,10.2,22.8,22.8c0,12.6-10.2,22.8-22.8,22.8
		H78L185.9,387c8.7,9.5,8.7,23.6,0,33.1c-9.5,8.7-23.6,8.7-32.3,0L6.3,272.8c-1.6-2.4-3.9-4.7-4.7-7.1C0,262.5,0,260.2,0,257
		c0-6.3,2.4-11.8,6.3-16.5L152.8,93.2C161.5,83,176.4,83,185.1,92.4L185.1,92.4z"/>
</g>
</svg>
