<svg xmlns="http://www.w3.org/2000/svg" xmlns:xlink="http://www.w3.org/1999/xlink" version="1.1" id="Layer_1" x="0px" y="0px" viewBox="0 0 512 512" style="enable-background:new 0 0 512 512;" xml:space="preserve"><g><path d="M21.6,40.4C9.7,40.4,0,50.1,0,62s9.7,21.6,21.6,21.6h47.8L126,309.9c4.8,19.2,22,32.3,41.8,32.3H415   c19.5,0,36-12.9,41.1-31.7L512,105.1H150.9l10.8,43.1h294.4L415,299.1H167.7L111.2,72.8c-4.8-19.2-22-32.3-41.8-32.3H21.6z    M388,342.2c-35.5,0-64.7,29.2-64.7,64.7s29.2,64.7,64.7,64.7s64.7-29.2,64.7-64.7S423.5,342.2,388,342.2z M194,342.2   c-35.5,0-64.7,29.2-64.7,64.7s29.2,64.7,64.7,64.7s64.7-29.2,64.7-64.7S229.5,342.2,194,342.2z M194,385.3   c12.1,0,21.6,9.4,21.6,21.6s-9.4,21.6-21.6,21.6c-12.1,0-21.6-9.4-21.6-21.6S181.9,385.3,194,385.3z M388,385.3   c12.1,0,21.6,9.4,21.6,21.6s-9.4,21.6-21.6,21.6s-21.6-9.4-21.6-21.6S375.9,385.3,388,385.3z"/></g></svg>